<?xml version="1.0" encoding="iso-8859-1"?>
<!-- Generator: Adobe Illustrator 19.0.0, SVG Export Plug-In . SVG Version: 6.00 Build 0)  -->
<svg version="1.1" id="Capa_1" xmlns="http://www.w3.org/2000/svg" xmlns:xlink="http://www.w3.org/1999/xlink" x="0px" y="0px"
	 viewBox="0 0 512 512" style="enable-background:new 0 0 512 512;" xml:space="preserve">
<g>
	<g>
		<path d="M417.161,99.747c-39.49-39.489-90.92-62.688-146.148-66.256V15.014C271.014,6.722,264.291,0,256,0
			c-8.292,0-15.014,6.722-15.014,15.014v18.477C185.758,37.06,134.328,60.259,94.838,99.748
			C51.79,142.796,28.083,200.03,28.083,260.91c0,0.01,0.001,0.019,0.001,0.019c0,0.026-0.001,0.041-0.001,0.057
			c0,8.292,6.722,15.014,15.014,15.014s15.014-6.722,15.014-15.014c0-14.943,17.439-27.567,38.082-27.567
			c20.641,0,38.081,12.624,38.081,27.567c0,8.292,6.722,15.014,15.014,15.014s15.014-6.722,15.014-15.014
			c0-14.943,17.439-27.567,38.081-27.567c20.509,0,37.849,12.464,38.071,27.281c-0.003,0.132-0.02,0.261-0.02,0.394v196.581
			c0,13.398-10.9,24.297-24.297,24.297s-24.296-10.9-24.296-24.297c0-8.292-6.722-15.014-15.014-15.014s-15.014,6.722-15.014,15.014
			c0,29.955,24.37,54.325,54.324,54.325c29.954,0,54.325-24.371,54.325-54.325v-196.09c0.008-0.2,0.03-0.397,0.03-0.6
			c0-14.943,17.439-27.567,38.081-27.567c20.641,0,38.081,12.624,38.081,27.567c0,8.292,6.722,15.014,15.014,15.014
			s15.014-6.722,15.014-15.014c0-14.943,17.439-27.567,38.082-27.567c20.641,0,38.081,12.624,38.081,27.567
			c0,8.292,6.722,15.014,15.014,15.014c0.599,0,1.185-0.044,1.766-0.113c7.954-0.379,14.292-6.93,14.292-14.978
			C483.916,200.03,460.208,142.795,417.161,99.747z"/>
	</g>
</g>
<g>
</g>
<g>
</g>
<g>
</g>
<g>
</g>
<g>
</g>
<g>
</g>
<g>
</g>
<g>
</g>
<g>
</g>
<g>
</g>
<g>
</g>
<g>
</g>
<g>
</g>
<g>
</g>
<g>
</g>
</svg>
